# xmcd CD database file
#
# Track frame offsets:
#	150
#	16330
#	34757
#	50317
#	61555
#	78000
#	91972
#	112642
#	122200
#	139452
#	155565
#	176397
#
# Disc length: 2604 seconds
#
# Revision: 2
# Processed by: cddbd v1.5.2PL0 Copyright (c) Steve Scherf et al.
# Submitted via: CDex 1.70beta2
#
DISCID=880a2a0c
DTITLE=Dave Kelly - When The Blues Come To Call...
DYEAR=1994
DGENRE=Blues
TTITLE0=You Can't Judge A Book By The Cover
TTITLE1=The Duisberg Blues
TTITLE2=Lets Talk It Over
TTITLE3=Jim Canaan
TTITLE4=32-20
TTITLE5=Hoodoo Lady
TTITLE6=The River
TTITLE7=Oklahoma
TTITLE8=She's Funny That Way
TTITLE9=No More Doggin'
TTITLE10=When The Blues Come To Call
TTITLE11=Rooster Blues
EXTD=YEAR: 1994
EXTT0=
EXTT1=
EXTT2=
EXTT3=
EXTT4=
EXTT5=
EXTT6=
EXTT7=
EXTT8=
EXTT9=
EXTT10=
EXTT11=
PLAYORDER=
